<svg width="17" height="17" viewBox="0 0 17 17" fill="none" xmlns="http://www.w3.org/2000/svg">
<path d="M3.03066 15.7034C2.45344 16.2646 1.5294 16.2517 0.96816 15.6746C0.40656 15.0978 0.419367 14.1735 0.996587 13.6123L11.6751 3.18165L4.22023 3.04356C3.41582 3.03113 2.77369 2.36848 2.78612 1.56419C2.79854 0.759906 3.4613 0.117881 4.26572 0.130304L15.1548 0.332174C15.5457 0.323301 15.9393 0.470466 16.2332 0.772517C16.7945 1.34964 16.7817 2.27352 16.2045 2.83503L3.03066 15.7034Z" fill="#2B2A29"/>
<path d="M13.7306 1.81286C13.7182 1.00857 14.3604 0.345364 15.1648 0.332941C15.9693 0.320518 16.632 0.96282 16.6444 1.76711L16.8472 12.8115C16.8596 13.6154 16.2174 14.2784 15.4133 14.2908C14.6089 14.3032 13.9458 13.6612 13.9334 12.8569L13.7306 1.81286Z" fill="#2B2A29"/>
</svg>
