<svg width="35" height="33" viewBox="0 0 35 33" fill="none" xmlns="http://www.w3.org/2000/svg">
<path d="M24.2972 20.7709L34.6169 31.0906L33.2395 32.4678L23.0303 22.2586L22.982 22.3077C20.6303 24.6593 17.3811 26.1145 13.7928 26.1145C10.2045 26.1145 6.95526 24.6593 4.60364 22.3077C2.25164 19.9561 0.796875 16.7069 0.796875 13.1186C0.796875 9.53028 2.25164 6.28137 4.60364 3.92937C6.95526 1.57775 10.2045 0.123047 13.7928 0.123047C17.3811 0.123047 20.6303 1.57775 22.982 3.92937C25.3336 6.28137 26.7887 9.53028 26.7887 13.1186C26.7887 15.9793 25.8638 18.6245 24.2972 20.7709ZM21.6047 5.30661C19.6053 3.30762 16.8432 2.07135 13.7928 2.07135C10.7423 2.07135 7.97987 3.30762 5.98088 5.30661C3.98151 7.30598 2.74525 10.0681 2.74525 13.1186C2.74525 16.1694 3.98151 18.9315 5.98088 20.9305C7.97987 22.9294 10.7423 24.1661 13.7928 24.1661C16.8432 24.1661 19.6053 22.9294 21.6047 20.9305C23.6036 18.9315 24.8404 16.1694 24.8404 13.1186C24.8404 10.0681 23.6036 7.30598 21.6047 5.30661Z" fill="#FEFEFE"/>
</svg>
